<svg width="139" height="49" viewBox="0 0 139 49" fill="none" xmlns="http://www.w3.org/2000/svg">
<path d="M3.08059 38.2439H0V37.2327H7.37475V38.2439H4.29416V46.334H3.08059V38.2439Z" fill="white"/>
<path d="M8.2149 37.2327H9.33512V40.7261C9.70852 39.8987 10.642 39.6229 11.4822 39.6229C13.2559 39.6229 13.816 40.6342 13.816 42.0131V46.334H12.6958V41.8293C12.6958 41.0019 12.1357 40.5422 11.2955 40.5422C9.98858 40.5422 9.33512 41.4616 9.33512 42.5647V46.242H8.2149V37.2327Z" fill="white"/>
<path d="M32.6729 39.9906C32.3929 38.7036 31.366 38.06 30.0591 38.06C27.8187 38.06 26.8852 39.8068 26.8852 41.7373C26.8852 43.8518 27.8187 45.5066 30.0591 45.5066C31.6461 45.5066 32.5796 44.4034 32.7663 42.8405H33.9799C33.7932 45.1388 32.2995 46.5178 29.9658 46.5178C27.0719 46.5178 25.6716 44.4034 25.6716 41.7373C25.6716 39.0713 27.1652 36.9568 30.0591 36.9568C32.0195 36.9568 33.6064 37.9681 33.8865 39.8987H32.6729V39.9906Z" fill="white"/>
<path d="M35.2868 37.2327H36.407V40.7261C36.7804 39.8987 37.7139 39.6229 38.5541 39.6229C40.3277 39.6229 40.8878 40.6342 40.8878 42.0131V46.334H39.7676V41.8293C39.7676 41.0019 39.2075 40.5422 38.3674 40.5422C37.0605 40.5422 36.407 41.4616 36.407 42.5647V46.242H35.2868V37.2327Z" fill="white"/>
<path d="M49.4762 39.7148H50.503V40.7261C50.9698 39.9906 51.7166 39.6229 52.6501 39.6229C53.4903 39.6229 54.2371 39.8987 54.5171 40.7261C54.9839 39.9906 55.7307 39.6229 56.5709 39.6229C57.8778 39.6229 58.8113 40.1745 58.8113 41.5535V46.4259H57.6911V42.1051C57.6911 41.2777 57.5044 40.6341 56.3842 40.6341C55.3573 40.6341 54.6105 41.2777 54.6105 42.2889V46.4259H53.4903V42.1051C53.4903 41.2777 53.2102 40.6341 52.2767 40.6341C50.9698 40.6341 50.503 41.8293 50.503 42.2889V46.4259H49.3828V39.7148H49.4762Z" fill="white"/>
<path d="M67.9597 41.8293C67.773 41.0019 67.2129 40.5422 66.2794 40.5422C64.6924 40.5422 64.2257 41.7373 64.2257 43.1163C64.2257 44.3115 64.7858 45.5066 66.186 45.5066C67.2129 45.5066 67.8664 44.863 68.0531 43.9437H69.1733C68.8932 45.5066 67.8664 46.5178 66.186 46.5178C64.1323 46.5178 63.0121 45.1388 63.0121 43.1163C63.0121 41.1857 64.039 39.6229 66.186 39.6229C67.6797 39.6229 68.8932 40.3584 69.0799 41.9212H67.9597V41.8293Z" fill="white"/>
<path d="M77.3882 37.2327H78.415V46.334H77.3882V37.2327Z" fill="white"/>
<path d="M90.4574 39.9906C90.1773 38.7036 89.1504 38.06 87.8435 38.06C85.6031 38.06 84.6696 39.8068 84.6696 41.7373C84.6696 43.8518 85.6031 45.5066 87.8435 45.5066C89.4305 45.5066 90.364 44.4034 90.5507 42.8405H91.7643C91.4842 45.1388 90.084 46.5178 87.7502 46.5178C84.8563 46.5178 83.456 44.4034 83.456 41.7373C83.456 39.0713 84.9496 36.9568 87.8435 36.9568C89.8039 36.9568 91.3909 37.9681 91.6709 39.8987H90.4574V39.9906Z" fill="white"/>
<path d="M100.539 39.7148H101.566V40.7261C102.033 39.9906 102.78 39.6229 103.713 39.6229C104.553 39.6229 105.3 39.8987 105.58 40.7261C106.047 39.9906 106.794 39.6229 107.634 39.6229C108.941 39.6229 109.874 40.1745 109.874 41.5535V46.4259H108.754V42.1051C108.754 41.2777 108.567 40.6341 107.447 40.6341C106.42 40.6341 105.674 41.2777 105.674 42.2889V46.4259H104.74V42.1051C104.74 41.2777 104.46 40.6341 103.527 40.6341C102.22 40.6341 101.753 41.8293 101.753 42.2889V46.4259H100.633V39.7148H100.539Z" fill="white"/>
<path d="M126.211 39.7148H127.238V40.7261C127.705 39.8987 128.451 39.5309 129.385 39.5309C131.158 39.5309 131.719 40.5422 131.719 41.9212V46.242H130.598V41.7373C130.598 40.9099 130.038 40.4503 129.198 40.4503C127.891 40.4503 127.238 41.3696 127.238 42.4728V46.1501H126.211V39.7148Z" fill="white"/>
<path d="M136.013 47.2533C135.546 48.5403 135.079 49 134.052 49C133.772 49 133.492 49 133.306 48.908V47.8968C133.492 47.9887 133.772 48.0807 133.959 48.0807C134.426 48.0807 134.612 47.8968 134.893 47.4371L135.359 46.3339L132.745 39.8067H133.959L135.919 45.2307L137.786 39.8067H138.907L136.013 47.2533Z" fill="white"/>
<path d="M21.0974 44.2195C20.8173 45.6904 19.6971 46.4259 18.2035 46.4259C16.0564 46.4259 15.0296 44.955 15.0296 42.9324C15.0296 40.9099 16.3365 39.5309 18.2035 39.5309C20.5373 39.5309 21.2841 41.7373 21.1907 43.3002H16.1498C16.1498 44.4034 16.8032 45.5066 18.2035 45.5066C19.137 45.5066 19.7905 45.0469 19.9772 44.2195H21.0974ZM20.0705 42.3809C19.9772 41.3696 19.2304 40.5422 18.1101 40.5422C16.9899 40.5422 16.2431 41.3696 16.1498 42.3809H20.0705Z" fill="white"/>
<path d="M48.2626 44.2195C47.9825 45.6904 46.8623 46.4259 45.3687 46.4259C43.2216 46.4259 42.1948 44.955 42.1948 42.9324C42.1948 40.9099 43.5017 39.5309 45.3687 39.5309C47.7025 39.5309 48.4493 41.7373 48.3559 43.3002H43.315C43.315 44.4034 43.9684 45.5066 45.3687 45.5066C46.3022 45.5066 46.9557 45.0469 47.1424 44.2195H48.2626ZM47.1424 42.3809C47.049 41.3696 46.3022 40.5422 45.182 40.5422C44.0618 40.5422 43.315 41.3696 43.2216 42.3809H47.1424Z" fill="white"/>
<path d="M61.7052 38.5197H60.5849V37.2327H61.7052V38.5197ZM60.5849 39.7148H61.7052V46.334H60.5849V39.7148Z" fill="white"/>
<path d="M76.268 46.334C76.0813 46.4259 75.8012 46.5178 75.5211 46.5178C74.961 46.5178 74.5876 46.242 74.5876 45.5066C73.9342 46.242 73.1874 46.5178 72.2539 46.5178C71.0403 46.5178 70.0134 45.9662 70.0134 44.6792C70.0134 43.2083 71.1336 42.8405 72.2539 42.6567C73.4674 42.4728 74.4943 42.4728 74.4943 41.6454C74.4943 40.7261 73.7475 40.5422 73.0007 40.5422C72.0672 40.5422 71.4137 40.818 71.3203 41.8293H70.2001C70.2935 40.1745 71.507 39.6229 73.0007 39.6229C74.2142 39.6229 75.5211 39.8987 75.5211 41.4615V44.863C75.5211 45.4146 75.5211 45.5985 75.8946 45.5985C75.9879 45.5985 76.0813 45.5985 76.268 45.5066V46.334ZM74.4943 42.9325C74.0275 43.2083 73.2807 43.2083 72.5339 43.3921C71.7871 43.4841 71.227 43.7599 71.227 44.5872C71.227 45.3227 71.8805 45.5985 72.5339 45.5985C74.0275 45.5985 74.5876 44.6792 74.5876 44.1276V42.9325H74.4943Z" fill="white"/>
<path d="M95.9651 39.6229C98.1122 39.6229 99.2324 41.0938 99.2324 43.1163C99.2324 45.0469 98.1122 46.5178 95.9651 46.5178C93.818 46.5178 92.6978 44.955 92.6978 43.1163C92.7911 41.0938 93.9114 39.6229 95.9651 39.6229ZM95.9651 45.5066C97.0853 45.5066 98.0188 44.5873 98.0188 43.0244C98.0188 41.4615 97.0853 40.5422 95.9651 40.5422C94.8449 40.5422 93.9114 41.4615 93.9114 43.0244C93.9114 44.6792 94.8449 45.5066 95.9651 45.5066Z" fill="white"/>
<path d="M111.648 39.7148H112.768V40.6342C113.142 39.8987 113.982 39.6229 114.915 39.6229C116.969 39.6229 117.996 41.1857 117.996 43.1163C117.996 44.955 116.969 46.5178 114.915 46.5178C114.262 46.5178 113.235 46.242 112.768 45.5066V48.9081H111.648V39.7148ZM114.729 40.5422C113.235 40.5422 112.675 41.8293 112.675 43.0244C112.675 44.3115 113.235 45.5066 114.822 45.5066C116.316 45.5066 116.876 44.2195 116.876 42.9325C116.782 41.7373 116.129 40.5422 114.729 40.5422Z" fill="white"/>
<path d="M125.184 46.334C124.997 46.4259 124.717 46.5178 124.437 46.5178C123.877 46.5178 123.504 46.242 123.504 45.5066C122.85 46.242 122.103 46.5178 121.17 46.5178C119.956 46.5178 118.929 45.9662 118.929 44.6792C118.929 43.2083 120.05 42.8405 121.17 42.6567C122.383 42.4728 123.41 42.4728 123.41 41.6454C123.41 40.7261 122.664 40.5422 121.917 40.5422C120.983 40.5422 120.33 40.818 120.236 41.8293H119.116C119.21 40.1745 120.423 39.6229 121.917 39.6229C123.13 39.6229 124.437 39.8987 124.437 41.4615V44.863C124.437 45.4146 124.437 45.5985 124.811 45.5985C124.904 45.5985 124.997 45.5985 125.184 45.5066V46.334ZM123.41 42.9325C122.944 43.2083 122.197 43.2083 121.45 43.3921C120.703 43.4841 120.143 43.7599 120.143 44.5872C120.143 45.3227 120.797 45.5985 121.45 45.5985C122.944 45.5985 123.504 44.6792 123.504 44.1276V42.9325H123.41Z" fill="white"/>
<path d="M49.7562 0.735474C49.7562 0.735474 61.3318 0.735474 63.6655 0.735474C68.7999 0.735474 71.0403 4.04504 71.0403 7.17074C71.0403 9.37712 70.2001 10.7561 67.8664 12.1351C70.7602 13.2383 72.3472 15.0769 72.3472 18.0188C72.3472 21.5122 69.7334 25.2814 63.6655 25.2814C60.3049 25.2814 49.7562 25.2814 49.7562 25.2814V0.735474ZM57.3177 19.6736C57.3177 19.6736 60.585 19.6736 62.3586 19.6736C64.1323 19.6736 64.9725 18.3865 64.9725 17.2833C64.9725 17.8349 65.1592 15.2608 62.6387 15.2608C61.3318 15.2608 57.411 15.2608 57.411 15.2608V19.6736H57.3177ZM57.411 10.3884C57.411 10.3884 59.7448 10.3884 61.4251 10.3884C63.2921 10.3884 64.039 9.56099 64.039 8.27393C64.039 7.99814 63.9456 6.34335 61.9852 6.34335C62.9187 6.34335 57.411 6.34335 57.411 6.34335V10.3884Z" fill="white"/>
<path d="M80.2821 0.735474H88.3103L97.4587 25.1895H89.2438L88.0302 21.5122H80.3754L79.3486 25.1895H71.1337L80.2821 0.735474ZM83.9228 7.99814L81.7757 16.1801H86.2566L83.9228 7.99814Z" fill="white"/>
<path d="M110.248 7.99812H117.903C117.903 3.86116 114.729 0 107.167 0C98.859 0 96.3385 4.50469 96.3385 7.81426C96.3385 13.1463 102.966 14.5253 103.153 14.6173C104.18 14.8931 108.194 15.9962 109.221 16.364C110.061 16.6398 110.995 17.3752 110.995 18.2946C110.995 19.7655 109.221 20.409 107.821 20.409C106.887 20.409 103.807 20.1332 103.807 16.8236H95.8717C95.8717 21.1445 98.859 25.9249 107.354 25.9249C116.689 25.9249 118.649 20.409 118.649 17.5591C118.649 15.1688 117.249 12.5028 114.169 11.3077C112.302 10.5722 109.128 9.9287 107.541 9.46904C106.7 9.28517 104.087 8.73358 104.087 7.0788C104.087 5.05628 107.541 5.33208 106.981 5.33208C108.474 5.24015 110.248 6.15947 110.248 7.99812Z" fill="white"/>
<path d="M119.863 0.735474H139V7.17074H127.518V11.4916H137.693V17.651H127.424V25.2814H119.863V0.735474Z" fill="white"/>
<path d="M0 0.735474V25.2814H24.9248V0.735474H0ZM17.27 17.743H7.6548V8.27393H17.27V17.743Z" fill="white"/>
<path d="M42.1948 8.27393H32.5796V17.743H42.1948V8.27393Z" fill="white"/>
</svg>
