<svg width="50" height="50" viewBox="0 0 50 50" fill="none" xmlns="http://www.w3.org/2000/svg">
<path d="M17.5105 50H20.007V45H17.5379C16.769 44.985 10.021 44.5675 10.021 35C10.021 30.0175 8.3608 26.885 6.27122 25C8.3608 23.115 10.021 19.9825 10.021 15C10.021 5.4325 16.769 5.015 17.5105 5H20.007V0H17.5055C13.189 0.01 5.02796 3.16 5.02796 15C5.02796 22 0.838826 22.475 0 22.5L0.0349512 27.5C0.239665 27.5 5.02796 27.585 5.02796 35C5.02796 46.84 13.189 49.99 17.5105 50ZM49.965 22.5C49.7603 22.5 44.972 22.415 44.972 15C44.972 3.16 36.811 0.01 32.4895 0H29.993V5H32.4621C33.231 5.015 39.979 5.4325 39.979 15C39.979 19.9825 41.6392 23.115 43.7288 25C41.6392 26.885 39.979 30.0175 39.979 35C39.979 44.5675 33.231 44.985 32.4895 45H29.993V50H32.4945C36.811 49.99 44.972 46.84 44.972 35C44.972 28 49.1612 27.525 50 27.5L49.965 22.5Z" fill="#333333"/>
</svg>
