<svg width="50" height="50" viewBox="0 0 50 50" fill="none" xmlns="http://www.w3.org/2000/svg">
<path d="M44.4141 41.7236L31.7334 29.043C33.7012 26.499 34.7656 23.3887 34.7656 20.1172C34.7656 16.2012 33.2373 12.5293 30.4736 9.76074C27.71 6.99219 24.0283 5.46875 20.1172 5.46875C16.2061 5.46875 12.5244 6.99707 9.76074 9.76074C6.99219 12.5244 5.46875 16.2012 5.46875 20.1172C5.46875 24.0283 6.99707 27.71 9.76074 30.4736C12.5244 33.2422 16.2012 34.7656 20.1172 34.7656C23.3887 34.7656 26.4941 33.7012 29.0381 31.7383L41.7188 44.4141C41.7559 44.4513 41.8001 44.4808 41.8487 44.5009C41.8973 44.5211 41.9494 44.5314 42.002 44.5314C42.0546 44.5314 42.1066 44.5211 42.1552 44.5009C42.2038 44.4808 42.248 44.4513 42.2852 44.4141L44.4141 42.29C44.4513 42.2529 44.4808 42.2087 44.5009 42.1601C44.5211 42.1115 44.5314 42.0594 44.5314 42.0068C44.5314 41.9542 44.5211 41.9022 44.5009 41.8536C44.4808 41.805 44.4513 41.7608 44.4141 41.7236ZM27.8516 27.8516C25.7813 29.917 23.0371 31.0547 20.1172 31.0547C17.1973 31.0547 14.4531 29.917 12.3828 27.8516C10.3174 25.7813 9.17969 23.0371 9.17969 20.1172C9.17969 17.1973 10.3174 14.4482 12.3828 12.3828C14.4531 10.3174 17.1973 9.17969 20.1172 9.17969C23.0371 9.17969 25.7861 10.3125 27.8516 12.3828C29.917 14.4531 31.0547 17.1973 31.0547 20.1172C31.0547 23.0371 29.917 25.7861 27.8516 27.8516Z" fill="black"/>
<rect width="15" height="15" transform="translate(5 24)" fill="white"/>
<path d="M13.7913 31.4992L17.7291 27.57C17.9016 27.3975 17.9984 27.1636 17.9984 26.9197C17.9984 26.6758 17.9016 26.4418 17.7291 26.2694C17.5567 26.0969 17.3228 26 17.0789 26C16.835 26 16.6011 26.0969 16.4287 26.2694L12.5 30.2078L8.5713 26.2694C8.39885 26.0969 8.16497 26 7.92109 26C7.67722 26 7.44333 26.0969 7.27089 26.2694C7.09844 26.4418 7.00156 26.6758 7.00156 26.9197C7.00156 27.1636 7.09844 27.3975 7.27089 27.57L11.2087 31.4992L7.27089 35.4285C7.18505 35.5136 7.11692 35.6149 7.07043 35.7265C7.02394 35.8382 7 35.9579 7 36.0788C7 36.1997 7.02394 36.3194 7.07043 36.431C7.11692 36.5426 7.18505 36.6439 7.27089 36.7291C7.35602 36.8149 7.45731 36.8831 7.5689 36.9296C7.6805 36.9761 7.8002 37 7.92109 37C8.04199 37 8.16168 36.9761 8.27328 36.9296C8.38488 36.8831 8.48616 36.8149 8.5713 36.7291L12.5 32.7907L16.4287 36.7291C16.5138 36.8149 16.6151 36.8831 16.7267 36.9296C16.8383 36.9761 16.958 37 17.0789 37C17.1998 37 17.3195 36.9761 17.4311 36.9296C17.5427 36.8831 17.644 36.8149 17.7291 36.7291C17.8149 36.6439 17.8831 36.5426 17.9296 36.431C17.9761 36.3194 18 36.1997 18 36.0788C18 35.9579 17.9761 35.8382 17.9296 35.7265C17.8831 35.6149 17.8149 35.5136 17.7291 35.4285L13.7913 31.4992Z" fill="#333333"/>
</svg>
