<svg width="50" height="50" viewBox="0 0 50 50" fill="none" xmlns="http://www.w3.org/2000/svg">
<path d="M27.9374 25L36.8958 16.0625C37.2881 15.6702 37.5085 15.1381 37.5085 14.5833C37.5085 14.0285 37.2881 13.4964 36.8958 13.1041C36.5035 12.7118 35.9714 12.4915 35.4166 12.4915C34.8618 12.4915 34.3297 12.7118 33.9374 13.1041L24.9999 22.0625L16.0624 13.1041C15.6701 12.7118 15.1381 12.4915 14.5833 12.4915C14.0285 12.4915 13.4964 12.7118 13.1041 13.1041C12.7118 13.4964 12.4914 14.0285 12.4914 14.5833C12.4914 15.1381 12.7118 15.6702 13.1041 16.0625L22.0624 25L13.1041 33.9375C12.9088 34.1311 12.7538 34.3616 12.6481 34.6154C12.5423 34.8693 12.4879 35.1416 12.4879 35.4166C12.4879 35.6917 12.5423 35.964 12.6481 36.2178C12.7538 36.4717 12.9088 36.7021 13.1041 36.8958C13.2978 37.0911 13.5282 37.2461 13.7821 37.3518C14.0359 37.4576 14.3082 37.5121 14.5833 37.5121C14.8583 37.5121 15.1306 37.4576 15.3845 37.3518C15.6383 37.2461 15.8688 37.0911 16.0624 36.8958L24.9999 27.9375L33.9374 36.8958C34.1311 37.0911 34.3615 37.2461 34.6154 37.3518C34.8693 37.4576 35.1416 37.5121 35.4166 37.5121C35.6916 37.5121 35.9639 37.4576 36.2178 37.3518C36.4717 37.2461 36.7021 37.0911 36.8958 36.8958C37.091 36.7021 37.246 36.4717 37.3518 36.2178C37.4576 35.964 37.512 35.6917 37.512 35.4166C37.512 35.1416 37.4576 34.8693 37.3518 34.6154C37.246 34.3616 37.091 34.1311 36.8958 33.9375L27.9374 25Z" fill="black"/>
</svg>
