<svg width="50" height="50" viewBox="0 0 50 50" fill="none" xmlns="http://www.w3.org/2000/svg">
<path d="M24.9805 3.72559C12.9053 3.7207 3.125 13.4961 3.125 25.5615C3.125 35.1025 9.24316 43.2129 17.7637 46.1914C18.9111 46.4795 18.7354 45.6641 18.7354 45.1074V41.3232C12.1094 42.0996 11.8408 37.7148 11.3965 36.9824C10.498 35.4492 8.37402 35.0586 9.00879 34.3262C10.5176 33.5498 12.0557 34.5215 13.8379 37.1533C15.127 39.0625 17.6416 38.7402 18.916 38.4229C19.1943 37.2754 19.79 36.25 20.6104 35.4541C13.7451 34.2236 10.8838 30.0342 10.8838 25.0537C10.8838 22.6367 11.6797 20.415 13.2422 18.623C12.2461 15.6689 13.335 13.1396 13.4814 12.7637C16.3184 12.5098 19.2676 14.7949 19.4971 14.9756C21.1084 14.541 22.9492 14.3115 25.0098 14.3115C27.0801 14.3115 28.9258 14.5508 30.5518 14.9902C31.1035 14.5703 33.8379 12.6074 36.4746 12.8467C36.6162 13.2227 37.6807 15.6934 36.7432 18.6084C38.3252 20.4053 39.1309 22.6465 39.1309 25.0684C39.1309 30.0586 36.25 34.2529 29.3652 35.4639C29.9549 36.0438 30.4232 36.7354 30.7426 37.4983C31.062 38.2612 31.2262 39.0801 31.2256 39.9072V45.4004C31.2646 45.8398 31.2256 46.2744 31.958 46.2744C40.6055 43.3594 46.8311 35.1904 46.8311 25.5664C46.8311 13.4961 37.0459 3.72559 24.9805 3.72559Z" fill="black"/>
</svg>
