<svg width="50" height="50" viewBox="0 0 50 50" fill="none" xmlns="http://www.w3.org/2000/svg">
<path d="M25 3.125C12.9199 3.125 3.125 12.9199 3.125 25C3.125 37.0801 12.9199 46.875 25 46.875C37.0801 46.875 46.875 37.0801 46.875 25C46.875 12.9199 37.0801 3.125 25 3.125ZM33.1543 34.0625C31.1719 35.8887 28.4668 36.9629 25.2393 36.9629C20.5664 36.9629 16.5234 34.2822 14.5557 30.376C13.7451 28.7598 13.2812 26.9336 13.2812 25C13.2812 23.0664 13.7451 21.2402 14.5557 19.624C16.5234 15.7129 20.5664 13.0322 25.2393 13.0322C28.4619 13.0322 31.167 14.2188 33.2422 16.1475L29.8145 19.5801C28.5742 18.3936 26.9971 17.793 25.2441 17.793C22.1289 17.793 19.4922 19.8975 18.5498 22.7246C18.3105 23.4424 18.1738 24.209 18.1738 25C18.1738 25.791 18.3105 26.5576 18.5498 27.2754C19.4922 30.1025 22.1289 32.207 25.2393 32.207C26.8506 32.207 28.2178 31.7822 29.2871 31.0645C30.5566 30.2148 31.3965 28.9502 31.6748 27.4512H25.2393V22.8223H36.5039C36.6455 23.6084 36.7188 24.4238 36.7188 25.2686C36.7188 28.916 35.415 31.9775 33.1543 34.0625Z" fill="black"/>
</svg>
