<svg width="50" height="50" viewBox="0 0 50 50" fill="none" xmlns="http://www.w3.org/2000/svg">
<path d="M25 4.16663C36.4583 4.16663 45.8333 13.5416 45.8333 25C45.8333 36.4583 36.4583 45.8333 25 45.8333C13.5417 45.8333 4.16666 36.4583 4.16666 25C4.16666 13.5416 13.5417 4.16663 25 4.16663ZM31.0833 26.6875C28.8333 26.6875 26.9792 28.25 26.4792 30.3333C25.3542 29.8541 24.2917 29.9791 23.5208 30.3125C23.0208 28.2291 21.1458 26.6875 18.9167 26.6875C16.3125 26.6875 14.2083 28.7916 14.2083 31.3958C14.2083 34 16.3125 36.1041 18.9167 36.1041C21.4167 36.1041 23.4167 34.2083 23.6042 31.7708C24.0208 31.5 25.0833 30.9583 26.3958 31.7916C26.4837 33.0119 27.0434 34.1499 27.9563 34.9643C28.8693 35.7786 30.0635 36.2053 31.2858 36.1539C32.5081 36.1024 33.6623 35.5767 34.5035 34.6884C35.3447 33.8001 35.8068 32.6191 35.7916 31.3958C35.7916 28.7916 33.6875 26.6875 31.0833 26.6875ZM18.9167 28.0208C20.8333 28.0208 22.2917 29.5416 22.2917 31.3958C22.2917 33.25 20.8333 34.7708 18.9167 34.7708C17.0625 34.7708 15.5417 33.25 15.5417 31.3958C15.5417 29.5416 17.0625 28.0208 18.9167 28.0208ZM31.0833 28.0208C32.9375 28.0208 34.4583 29.5416 34.4583 31.3958C34.4583 33.25 32.9375 34.7708 31.0833 34.7708C29.1667 34.7708 27.7083 33.25 27.7083 31.3958C27.7083 29.5416 29.1667 28.0208 31.0833 28.0208ZM37.1458 23.9583H12.8542V25.3541H37.1458V23.9583ZM29.4791 14.3541C29.3373 14.0502 29.091 13.8073 28.7851 13.6696C28.4792 13.532 28.1341 13.5087 27.8125 13.6041L25 14.5833L22.1875 13.6041L22.1042 13.5416C21.7763 13.4712 21.434 13.5207 21.1396 13.6813C20.8452 13.8419 20.6183 14.1028 20.5 14.4166L17.4167 22.5625H32.5833L29.5 14.4166L29.4791 14.3541Z" fill="black"/>
</svg>
