<svg width="50" height="50" viewBox="0 0 50 50" fill="none" xmlns="http://www.w3.org/2000/svg">
<path fill-rule="evenodd" clip-rule="evenodd" d="M25 45.8334C13.4938 45.8334 4.16669 36.5063 4.16669 25.0001C4.16669 13.4938 13.4938 4.16675 25 4.16675C36.5063 4.16675 45.8334 13.4938 45.8334 25.0001C45.8334 36.5063 36.5063 45.8334 25 45.8334ZM33.3334 27.0834C33.3334 29.2936 32.4554 31.4132 30.8926 32.976C29.3298 34.5388 27.2102 35.4167 25 35.4167C22.7899 35.4167 20.6703 34.5388 19.1075 32.976C17.5447 31.4132 16.6667 29.2936 16.6667 27.0834H33.3334ZM25 41.6668C29.4203 41.6668 33.6595 39.9108 36.7851 36.7852C39.9107 33.6596 41.6667 29.4204 41.6667 25.0001C41.6667 20.5798 39.9107 16.3406 36.7851 13.215C33.6595 10.0894 29.4203 8.33342 25 8.33342C20.5797 8.33342 16.3405 10.0894 13.2149 13.215C10.0893 16.3406 8.33335 20.5798 8.33335 25.0001C8.33335 29.4204 10.0893 33.6596 13.2149 36.7852C16.3405 39.9108 20.5797 41.6668 25 41.6668ZM19.7917 22.9167C20.6205 22.9167 21.4153 22.5875 22.0014 22.0015C22.5874 21.4154 22.9167 20.6206 22.9167 19.7917C22.9167 18.9629 22.5874 18.1681 22.0014 17.582C21.4153 16.996 20.6205 16.6667 19.7917 16.6667C18.9629 16.6667 18.168 16.996 17.582 17.582C16.9959 18.1681 16.6667 18.9629 16.6667 19.7917C16.6667 20.6206 16.9959 21.4154 17.582 22.0015C18.168 22.5875 18.9629 22.9167 19.7917 22.9167ZM30.2084 22.9167C31.0372 22.9167 31.832 22.5875 32.4181 22.0015C33.0041 21.4154 33.3334 20.6206 33.3334 19.7917C33.3334 18.9629 33.0041 18.1681 32.4181 17.582C31.832 16.996 31.0372 16.6667 30.2084 16.6667C29.3796 16.6667 28.5847 16.996 27.9986 17.582C27.4126 18.1681 27.0834 18.9629 27.0834 19.7917C27.0834 20.6206 27.4126 21.4154 27.9986 22.0015C28.5847 22.5875 29.3796 22.9167 30.2084 22.9167Z" fill="black"/>
</svg>
