<svg width="50" height="50" viewBox="0 0 50 50" fill="none" xmlns="http://www.w3.org/2000/svg">
<g clip-path="url(#clip0)">
<path d="M9.37502 25C9.37502 24.4062 9.40939 23.8187 9.47502 23.2406L0.443768 20.3062C0.150925 21.8537 0.0034082 23.4251 0.00314331 25C0.00314331 32.1875 3.03752 38.6687 7.89689 43.2281L13.4781 35.5468C10.837 32.6699 9.37359 28.9054 9.37814 25H9.37502ZM40.625 25C40.6308 28.9056 39.1672 32.6706 36.525 35.5468L42.1063 43.2281C44.6014 40.8933 46.5897 38.0703 47.9477 34.9345C49.3057 31.7987 50.0042 28.4172 50 25C50 23.3969 49.8469 21.8281 49.5594 20.3062L40.5281 23.2406C40.5938 23.8187 40.6281 24.4062 40.6281 25H40.625ZM28.125 9.68748C30.3121 10.1358 32.3781 11.0468 34.1842 12.3592C35.9903 13.6716 37.4949 15.3552 38.5969 17.2969L47.6281 14.3625C45.8328 10.55 43.1039 7.2525 39.6946 4.77566C36.2852 2.29882 32.3057 0.722806 28.125 0.193726V9.68748ZM11.4031 17.2969C12.5047 15.3548 14.0091 13.671 15.8153 12.3585C17.6215 11.046 19.6877 10.1353 21.875 9.68748V0.193726C17.6938 0.721406 13.7137 2.29687 10.3042 4.77387C6.8946 7.25088 4.16608 10.5491 2.37189 14.3625L11.4031 17.2969ZM31.4719 39.225C29.5 40.125 27.3094 40.625 25 40.625C22.6906 40.625 20.5 40.125 18.5281 39.225L12.9469 46.9062C16.5219 48.8781 20.6281 50 25 50C29.3719 50 33.4781 48.8781 37.0531 46.9062L31.4719 39.225Z" fill="black"/>
</g>
<defs>
<clipPath id="clip0">
<rect width="50" height="50" fill="white"/>
</clipPath>
</defs>
</svg>
