<svg width="360" height="640" viewBox="0 0 360 640" fill="none" xmlns="http://www.w3.org/2000/svg">
<g opacity="0.27">
<mask id="mask0" mask-type="alpha" maskUnits="userSpaceOnUse" x="0" y="0" width="360" height="640">
<rect width="360" height="640" fill="#C4C4C4"/>
</mask>
<g mask="url(#mask0)">
<path opacity="0.5" d="M12.0106 449.334C-128.346 559.359 -99.5691 786.071 -67.6361 885.674L-56.0742 906.705L-94.8334 1060.39C39.6997 1036.64 374.382 964.025 636.846 863.557C964.926 737.973 1075.39 449.018 1131.16 226.646C1186.93 4.27327 576.079 -235.055 390.833 -165.169C205.587 -95.2838 338.419 -86.1448 288.08 137.806C237.741 361.757 187.456 311.803 12.0106 449.334Z" fill="#004E96"/>
<path opacity="0.5" d="M66.1037 435.983C-81.6692 535.826 -68.9673 764.003 -44.1448 865.612L-34.0963 887.407L-83.6068 1037.97C52.267 1023.78 391.24 974.969 660.141 893.279C996.268 791.166 1126.85 510.73 1198.18 292.849C1269.51 74.9675 677.074 -206.882 487.357 -150.247C297.641 -93.6123 429.497 -75.1198 363.475 144.719C297.453 364.558 250.82 311.179 66.1037 435.983Z" fill="#004E96"/>
<path opacity="0.5" d="M137.363 463.331C-22.8048 541.764 -41.8023 769.504 -31.28 873.57L-24.3444 896.546L-94.2145 1038.81C42.316 1043.55 384.782 1042.13 662.4 998.435C1009.42 943.821 1177.56 684.154 1278.35 478.241C1379.15 272.327 831.42 -88.7963 635.691 -58.961C439.962 -29.1257 567.99 7.43631 472.181 216.023C376.371 424.61 337.573 365.291 137.363 463.331Z" fill="#004E96"/>
<path opacity="0.5" d="M192.469 511.983C25.2765 574.048 -16.3418 798.758 -16.2519 903.354L-11.6426 926.908L-95.3538 1061.49C40.0223 1079.83 380.923 1112.57 661.515 1096.79C1012.26 1077.06 1205.45 835.457 1326.28 640.624C1447.11 445.791 938.136 31.8361 740.407 42C542.678 52.1639 666.421 101.313 550.284 299.304C434.147 497.294 401.46 434.401 192.469 511.983Z" fill="#004E96"/>
</g>
</g>
</svg>
