<svg width="1440" height="1024" viewBox="0 0 1440 1024" fill="none" xmlns="http://www.w3.org/2000/svg">
<mask id="mask0" mask-type="alpha" maskUnits="userSpaceOnUse" x="0" y="0" width="1440" height="1024">
<rect opacity="0.27" width="1440" height="1024" fill="#C4C4C4"/>
</mask>
<g mask="url(#mask0)">
<path opacity="0.5" d="M379.941 565.617C77.4987 504.536 -188.479 797.083 -283.663 950.991L-298.347 989.83L-544.1 1111.47C-361.721 1261.81 109.795 1620.61 536.834 1853.1C1070.63 2143.7 1574.92 1964.44 1930.17 1788.02C2285.42 1611.59 1914.11 538.987 1614.06 373.75C1314 208.513 1451.2 393.559 1099.98 578.904C748.754 764.249 757.994 641.967 379.941 565.617Z" fill="#004E96"/>
<path opacity="0.5" d="M458.275 621.793C160.899 539.516 -125.066 812.558 -230.876 959.364L-248.266 997.069L-501.992 1101.06C-330.68 1263.9 114.333 1655.09 523.896 1917.13C1035.85 2244.7 1551.54 2101.48 1918.35 1950.57C2285.17 1799.66 1990.5 703.524 1702.85 517.519C1415.21 331.514 1539 525.783 1175.58 685.873C812.146 845.964 829.996 724.639 458.275 621.793Z" fill="#004E96"/>
<path opacity="0.5" d="M502.341 746.279C219.212 623.64 -101.787 854.481 -226.895 985.231L-249.335 1020.17L-515.011 1088.05C-367.883 1273.02 18.7124 1722.03 388.07 2038.24C849.768 2433.5 1380.31 2363.02 1764.48 2264.33C2148.65 2165.64 2008.51 1039.27 1749.38 815.244C1490.24 591.222 1585.96 800.753 1203.87 909.008C821.785 1017.26 856.252 899.577 502.341 746.279Z" fill="#004E96"/>
<path opacity="0.5" d="M500.23 873.44C230.746 723.173 -111.677 920.845 -249.203 1038.46L-275.016 1070.99L-546.137 1112.03C-418.194 1310.76 -78.3117 1796.09 257.665 2147.56C677.636 2586.9 1212.56 2569.69 1604.66 2509.81C1996.76 2449.93 1969.66 1315.2 1734.17 1066.44C1498.67 817.693 1573.01 1035.73 1182.03 1105.33C791.052 1174.94 837.086 1061.27 500.23 873.44Z" fill="#004E96"/>
</g>
</svg>
